# This file uses centimeters as units for non-parametric coordinates.

mtllib Gun.mtl
v 0.007005 -0.218233 8.047279
v 0.049100 -0.276978 8.047279
v 0.117684 -0.299760 8.047279
v 0.186562 -0.277879 8.047279
v 0.229423 -0.219691 8.047279
v 0.229896 -0.147423 8.047279
v 0.187802 -0.088679 8.047279
v 0.119217 -0.065896 8.047279
v 0.050340 -0.087778 8.047279
v 0.007479 -0.145966 8.047279
v 0.007005 -0.218233 10.009420
v 0.049100 -0.276978 10.009420
v 0.117684 -0.299760 10.009420
v 0.186562 -0.277879 10.009420
v 0.229423 -0.219691 10.009420
v 0.229896 -0.147423 10.009420
v 0.187802 -0.088679 10.009420
v 0.119217 -0.065896 10.009420
v 0.050340 -0.087778 10.009420
v 0.007479 -0.145966 10.009420
v 0.118451 -0.182828 10.009420
v -0.235751 -0.215441 8.047279
v -0.193656 -0.274186 8.047279
v -0.125071 -0.296968 8.047279
v -0.056194 -0.275086 8.047279
v -0.013333 -0.216899 8.047279
v -0.012859 -0.144631 8.047279
v -0.054954 -0.085887 8.047279
v -0.123538 -0.063104 8.047279
v -0.192416 -0.084986 8.047279
v -0.235277 -0.143173 8.047279
v -0.235751 -0.215441 10.009420
v -0.193656 -0.274186 10.009420
v -0.125071 -0.296968 10.009420
v -0.056194 -0.275086 10.009420
v -0.013333 -0.216899 10.009420
v -0.012859 -0.144631 10.009420
v -0.054954 -0.085887 10.009420
v -0.123538 -0.063104 10.009420
v -0.192416 -0.084986 10.009420
v -0.235277 -0.143173 10.009420
v -0.124305 -0.180036 10.009420
v -0.308407 0.016307 8.047279
v -0.266312 -0.042438 8.047279
v -0.197728 -0.065220 8.047279
v -0.128851 -0.043339 8.047279
v -0.085990 0.014849 8.047279
v -0.085516 0.087117 8.047279
v -0.127611 0.145861 8.047279
v -0.196195 0.168644 8.047279
v -0.265073 0.146762 8.047279
v -0.307934 0.088575 8.047279
v -0.308407 0.016307 10.009420
v -0.266312 -0.042438 10.009420
v -0.197728 -0.065220 10.009420
v -0.128851 -0.043339 10.009420
v -0.085990 0.014849 10.009420
v -0.085516 0.087117 10.009420
v -0.127611 0.145861 10.009420
v -0.196195 0.168644 10.009420
v -0.265073 0.146762 10.009420
v -0.307934 0.088575 10.009420
v -0.196962 0.051712 10.009420
v 0.083213 0.013053 8.047279
v 0.125308 -0.045692 8.047279
v 0.193892 -0.068474 8.047279
v 0.262770 -0.046592 8.047279
v 0.305631 0.011595 8.047279
v 0.306104 0.083863 8.047279
v 0.264010 0.142607 8.047279
v 0.195425 0.165390 8.047279
v 0.126548 0.143508 8.047279
v 0.083687 0.085321 8.047279
v 0.083213 0.013053 10.009420
v 0.125308 -0.045692 10.009420
v 0.193892 -0.068474 10.009420
v 0.262770 -0.046592 10.009420
v 0.305631 0.011595 10.009420
v 0.306104 0.083863 10.009420
v 0.264010 0.142607 10.009420
v 0.195425 0.165390 10.009420
v 0.126548 0.143508 10.009420
v 0.083687 0.085321 10.009420
v 0.194659 0.048458 10.009420
v -0.112380 0.158517 8.047279
v -0.070286 0.099773 8.047279
v -0.001701 0.076990 8.047279
v 0.067176 0.098872 8.047279
v 0.110037 0.157059 8.047279
v 0.110511 0.229327 8.047279
v 0.068416 0.288071 8.047279
v -0.000168 0.310854 8.047279
v -0.069046 0.288972 8.047279
v -0.111907 0.230785 8.047279
v -0.112380 0.158517 10.009420
v -0.070286 0.099773 10.009420
v -0.001701 0.076990 10.009420
v 0.067176 0.098872 10.009420
v 0.110037 0.157059 10.009420
v 0.110511 0.229327 10.009420
v 0.068416 0.288071 10.009420
v -0.000168 0.310854 10.009420
v -0.069046 0.288972 10.009420
v -0.111907 0.230785 10.009420
v -0.000935 0.191607 10.009420
v -0.417968 -0.144716 6.737037
v -0.261301 -0.363349 6.737037
v -0.006046 -0.448140 6.737037
v 0.250299 -0.366702 6.737037
v 0.409818 -0.150142 6.737037
v 0.411581 0.118822 6.737037
v 0.254914 0.337455 6.737037
v -0.000341 0.422246 6.737037
v -0.256686 0.340808 6.737037
v -0.416205 0.124248 6.737037
v -0.417968 -0.144716 8.065731
v -0.261301 -0.363349 8.065731
v -0.006046 -0.448140 8.065731
v 0.250299 -0.366702 8.065731
v 0.409818 -0.150142 8.065731
v 0.411581 0.118822 8.065731
v 0.254914 0.337455 8.065731
v -0.000341 0.422246 8.065731
v -0.256686 0.340808 8.065731
v -0.416205 0.124248 8.065731
v -0.003193 -0.012947 8.065731
vt 0.365812 0.876393
vt 0.288626 0.964335
vt 0.192102 0.801401
vt 0.174570 0.990041
vt 0.067211 0.943693
vt 0.007556 0.842995
vt 0.018391 0.726409
vt 0.095577 0.638468
vt 0.209633 0.612762
vt 0.316992 0.659109
vt 0.376647 0.759808
vt 0.365954 0.877239
vt 0.288767 0.965180
vt 0.192243 0.802247
vt 0.174712 0.990886
vt 0.067353 0.944539
vt 0.007697 0.843841
vt 0.018532 0.727255
vt 0.095719 0.639314
vt 0.209774 0.613607
vt 0.317134 0.659955
vt 0.376789 0.760653
vt 0.365525 0.877112
vt 0.288339 0.965054
vt 0.191814 0.802120
vt 0.174283 0.990760
vt 0.066924 0.944412
vt 0.007269 0.843714
vt 0.018104 0.727128
vt 0.095290 0.639187
vt 0.209346 0.613481
vt 0.316705 0.659828
vt 0.376360 0.760526
vt 0.366242 0.876494
vt 0.289055 0.964436
vt 0.192531 0.801502
vt 0.175000 0.990142
vt 0.067640 0.943794
vt 0.007985 0.843096
vt 0.018820 0.726510
vt 0.096006 0.638569
vt 0.210062 0.612863
vt 0.317421 0.659210
vt 0.377077 0.759909
vt 0.365560 0.875927
vt 0.288374 0.963868
vt 0.191478 0.804667
vt 0.174318 0.989575
vt 0.066959 0.943227
vt 0.007304 0.842529
vt 0.018139 0.725943
vt 0.095325 0.638002
vt 0.209381 0.612295
vt 0.316740 0.658643
vt 0.376395 0.759341
vt 0.432488 0.044457
vt 0.444221 0.044459
vt 0.444164 0.955548
vt 0.432412 0.955546
vt 0.460958 0.044463
vt 0.460913 0.955551
vt 0.479393 0.044466
vt 0.479355 0.955554
vt 0.497759 0.044467
vt 0.497727 0.955556
vt 0.514237 0.044467
vt 0.514209 0.955556
vt 0.525252 0.044465
vt 0.525226 0.955554
vt 0.520278 0.044462
vt 0.520232 0.955550
vt 0.476011 0.044459
vt 0.475884 0.955547
vt 0.435275 0.044457
vt 0.435162 0.955546
vt 0.898556 0.044446
vt 0.917216 0.044448
vt 0.917172 0.955537
vt 0.898516 0.955535
vt 0.936017 0.044452
vt 0.935966 0.955540
vt 0.953210 0.955543
vt 0.424496 0.044456
vt 0.424418 0.955545
vt 0.423365 0.044456
vt 0.423250 0.955545
vt 0.924721 0.044454
vt 0.876602 0.044451
vt 0.876530 0.955539
vt 0.870747 0.044447
vt 0.870705 0.955536
vt 0.881840 0.044446
vt 0.881802 0.955534
vt 0.829101 0.044442
vt 0.847724 0.044444
vt 0.847707 0.955533
vt 0.829098 0.955530
vt 0.862165 0.044447
vt 0.862131 0.955536
vt 0.863432 0.044450
vt 0.863376 0.955539
vt 0.818905 0.044452
vt 0.818919 0.955541
vt 0.762363 0.044452
vt 0.762459 0.955540
vt 0.758254 0.044449
vt 0.758316 0.955538
vt 0.771177 0.044446
vt 0.771216 0.955535
vt 0.789277 0.044443
vt 0.789300 0.955532
vt 0.809121 0.044441
vt 0.809131 0.955530
vt 0.573950 0.044460
vt 0.533094 0.044462
vt 0.533065 0.955551
vt 0.573993 0.955548
vt 0.533763 0.044465
vt 0.533744 0.955554
vt 0.547497 0.044468
vt 0.547492 0.955557
vt 0.565529 0.044470
vt 0.565536 0.955559
vt 0.584960 0.044470
vt 0.584978 0.955559
vt 0.604213 0.044467
vt 0.604243 0.955556
vt 0.621562 0.044464
vt 0.621608 0.955553
vt 0.633348 0.044461
vt 0.633417 0.955550
vt 0.627490 0.044459
vt 0.627594 0.955548
vt 0.749246 0.044450
vt 0.747797 0.044452
vt 0.747909 0.955541
vt 0.749314 0.955539
vt 0.693013 0.044456
vt 0.693236 0.955544
vt 0.642519 0.044459
vt 0.642637 0.955547
vt 0.642820 0.044460
vt 0.642894 0.955549
vt 0.657294 0.044460
vt 0.657356 0.955549
vt 0.676121 0.044458
vt 0.676178 0.955546
vt 0.696375 0.044454
vt 0.696430 0.955543
vt 0.716587 0.044451
vt 0.716642 0.955540
vt 0.735250 0.044450
vt 0.735308 0.955538
vt 0.953270 0.044455
vt 0.965864 0.044456
vt 0.965787 0.955545
vt 0.964734 0.044456
vt 0.924566 0.955543
vt 0.964618 0.955545
vt 0.533245 0.054196
vt 0.588127 0.054194
vt 0.588148 0.199837
vt 0.533253 0.199839
vt 0.643012 0.054191
vt 0.643039 0.199834
vt 0.697903 0.054188
vt 0.697925 0.199831
vt 0.752798 0.054186
vt 0.752806 0.199830
vt 0.807694 0.054186
vt 0.807686 0.199830
vt 0.862589 0.054188
vt 0.862567 0.199831
vt 0.917453 0.199834
vt 0.423484 0.054194
vt 0.423462 0.199837
vt 0.478366 0.054195
vt 0.478357 0.199839
vt 0.917480 0.054191
vt 0.972365 0.054194
vt 0.972343 0.199837
vn -0.953061 -0.302777 0.000000
vn -0.593075 -0.805147 0.000000
vn -0.951980 -0.302434 0.047622
vn -0.592402 -0.804233 0.047622
vn -0.006554 -0.999979 0.000000
vn -0.006547 -0.998844 0.047622
vn 0.582470 -0.812852 0.000000
vn 0.581810 -0.811930 0.047622
vn 0.949011 -0.315243 0.000000
vn 0.947934 -0.314886 0.047622
vn 0.953061 0.302778 0.000000
vn 0.951980 0.302434 0.047622
vn 0.593075 0.805147 0.000000
vn 0.592402 0.804234 0.047622
vn 0.006554 0.999979 0.000000
vn 0.006546 0.998844 0.047622
vn -0.582471 0.812852 0.000000
vn -0.581810 0.811929 0.047622
vn -0.949011 0.315244 0.000000
vn -0.947934 0.314886 0.047622
vn 0.000000 0.000000 1.000000
vn -0.953061 -0.302777 0.000000
vn -0.593074 -0.805148 0.000000
vn -0.951980 -0.302434 0.047622
vn -0.592401 -0.804234 0.047622
vn -0.006554 -0.999979 0.000000
vn -0.006546 -0.998844 0.047622
vn 0.582470 -0.812852 0.000000
vn 0.581810 -0.811930 0.047622
vn 0.949011 -0.315244 0.000000
vn 0.947934 -0.314886 0.047622
vn 0.953061 0.302777 0.000000
vn 0.951980 0.302434 0.047622
vn 0.593075 0.805147 0.000000
vn 0.592402 0.804234 0.047622
vn 0.006554 0.999979 0.000000
vn 0.006546 0.998844 0.047622
vn -0.582470 0.812852 0.000000
vn -0.581809 0.811930 0.047622
vn -0.949011 0.315243 0.000000
vn -0.947934 0.314886 0.047622
vn 0.000000 0.000000 1.000000
vn -0.953061 -0.302777 0.000000
vn -0.593075 -0.805147 0.000000
vn -0.951980 -0.302433 0.047622
vn -0.592402 -0.804234 0.047622
vn -0.006554 -0.999979 0.000000
vn -0.006546 -0.998844 0.047622
vn 0.582470 -0.812852 0.000000
vn 0.581810 -0.811929 0.047622
vn 0.949011 -0.315244 0.000000
vn 0.947934 -0.314885 0.047622
vn 0.953061 0.302777 0.000000
vn 0.951980 0.302434 0.047622
vn 0.593075 0.805147 0.000000
vn 0.592402 0.804234 0.047622
vn 0.006554 0.999979 0.000000
vn 0.006547 0.998844 0.047622
vn -0.582471 0.812851 0.000000
vn -0.581811 0.811929 0.047622
vn -0.949011 0.315243 0.000000
vn -0.947934 0.314885 0.047622
vn -0.000000 0.000000 1.000000
vn -0.953061 -0.302777 0.000000
vn -0.593075 -0.805147 0.000000
vn -0.951980 -0.302434 0.047622
vn -0.592402 -0.804234 0.047622
vn -0.006554 -0.999979 0.000000
vn -0.006546 -0.998844 0.047622
vn 0.582470 -0.812852 0.000000
vn 0.581810 -0.811930 0.047622
vn 0.949011 -0.315243 0.000000
vn 0.947934 -0.314886 0.047622
vn 0.953061 0.302777 0.000000
vn 0.951980 0.302433 0.047622
vn 0.593075 0.805147 0.000000
vn 0.592402 0.804234 0.047622
vn 0.006555 0.999978 0.000000
vn 0.006547 0.998844 0.047622
vn -0.582470 0.812852 0.000000
vn -0.581810 0.811930 0.047622
vn -0.949011 0.315243 0.000000
vn -0.947934 0.314886 0.047622
vn 0.000000 0.000000 1.000000
vn -0.953061 -0.302777 0.000000
vn -0.593076 -0.805147 0.000000
vn -0.951993 -0.302437 0.047342
vn -0.592424 -0.804262 0.046867
vn -0.006553 -0.999979 0.000000
vn -0.006546 -0.998888 0.046682
vn 0.582470 -0.812852 0.000000
vn 0.581831 -0.811959 0.046859
vn 0.949011 -0.315244 0.000000
vn 0.947947 -0.314890 0.047330
vn 0.953061 0.302777 0.000000
vn 0.951967 0.302430 0.047911
vn 0.593076 0.805146 0.000000
vn 0.592381 0.804204 0.048381
vn 0.006554 0.999979 0.000000
vn 0.006546 0.998799 0.048563
vn -0.582471 0.812851 0.000000
vn -0.581789 0.811899 0.048388
vn -0.949011 0.315244 0.000000
vn -0.947920 0.314882 0.047923
vn -0.000000 0.000000 1.000000
vn -0.953061 -0.302778 0.000000
vn -0.593075 -0.805147 0.000000
vn -0.921936 -0.292889 0.253476
vn -0.573706 -0.778853 0.253476
vn -0.006554 -0.999979 0.000000
vn -0.006340 -0.967321 0.253476
vn 0.582471 -0.812852 0.000000
vn 0.563448 -0.786305 0.253475
vn 0.949011 -0.315244 0.000000
vn 0.918018 -0.304948 0.253476
vn 0.953061 0.302777 0.000000
vn 0.921936 0.292889 0.253475
vn 0.593075 0.805147 0.000000
vn 0.573706 0.778853 0.253476
vn 0.006554 0.999979 0.000000
vn 0.006340 0.967321 0.253476
vn -0.582470 0.812852 0.000000
vn -0.563448 0.786306 0.253476
vn -0.949011 0.315244 0.000000
vn -0.918018 0.304949 0.253475
vn 0.000000 0.000000 1.000000
usemtl pasted__lambert2SG
f 1/56/1 2/57/2 11/59/3
f 11/59/3 2/57/2 12/58/4
f 2/57/2 3/60/5 12/58/4
f 12/58/4 3/60/5 13/61/6
f 3/60/5 4/62/7 13/61/6
f 13/61/6 4/62/7 14/63/8
f 4/62/7 5/64/9 14/63/8
f 14/63/8 5/64/9 15/65/10
f 5/64/9 6/66/11 15/65/10
f 15/65/10 6/66/11 16/67/12
f 6/66/11 7/68/13 16/67/12
f 16/67/12 7/68/13 17/69/14
f 7/68/13 8/70/15 17/69/14
f 17/69/14 8/70/15 18/71/16
f 8/70/15 9/72/17 18/71/16
f 18/71/16 9/72/17 19/73/18
f 9/72/17 10/74/19 19/73/18
f 19/73/18 10/74/19 20/75/20
f 10/74/19 1/56/1 20/75/20
f 20/75/20 1/56/1 11/59/3
f 11/1/3 12/2/4 21/3/21
f 12/2/4 13/4/6 21/3/21
f 13/4/6 14/5/8 21/3/21
f 14/5/8 15/6/10 21/3/21
f 15/6/10 16/7/12 21/3/21
f 16/7/12 17/8/14 21/3/21
f 17/8/14 18/9/16 21/3/21
f 18/9/16 19/10/18 21/3/21
f 19/10/18 20/11/20 21/3/21
f 20/11/20 11/1/3 21/3/21
f 22/76/22 23/77/23 32/79/24
f 32/79/24 23/77/23 33/78/25
f 23/77/23 24/80/26 33/78/25
f 33/78/25 24/80/26 34/81/27
f 24/80/26 25/154/28 34/81/27
f 34/81/27 25/154/28 35/82/29
f 25/154/28 26/155/30 35/82/29
f 35/82/29 26/155/30 36/156/31
f 26/83/30 27/85/32 36/84/31
f 36/84/31 27/85/32 37/86/33
f 27/157/32 28/87/34 37/159/33
f 37/159/33 28/87/34 38/158/35
f 28/87/34 29/88/36 38/158/35
f 38/158/35 29/88/36 39/89/37
f 29/88/36 30/90/38 39/89/37
f 39/89/37 30/90/38 40/91/39
f 30/90/38 31/92/40 40/91/39
f 40/91/39 31/92/40 41/93/41
f 31/92/40 22/76/22 41/93/41
f 41/93/41 22/76/22 32/79/24
f 32/12/24 33/13/25 42/14/42
f 33/13/25 34/15/27 42/14/42
f 34/15/27 35/16/29 42/14/42
f 35/16/29 36/17/31 42/14/42
f 36/17/31 37/18/33 42/14/42
f 37/18/33 38/19/35 42/14/42
f 38/19/35 39/20/37 42/14/42
f 39/20/37 40/21/39 42/14/42
f 40/21/39 41/22/41 42/14/42
f 41/22/41 32/12/24 42/14/42
f 43/94/43 44/95/44 53/97/45
f 53/97/45 44/95/44 54/96/46
f 44/95/44 45/98/47 54/96/46
f 54/96/46 45/98/47 55/99/48
f 45/98/47 46/100/49 55/99/48
f 55/99/48 46/100/49 56/101/50
f 46/100/49 47/102/51 56/101/50
f 56/101/50 47/102/51 57/103/52
f 47/102/51 48/104/53 57/103/52
f 57/103/52 48/104/53 58/105/54
f 48/104/53 49/106/55 58/105/54
f 58/105/54 49/106/55 59/107/56
f 49/106/55 50/108/57 59/107/56
f 59/107/56 50/108/57 60/109/58
f 50/108/57 51/110/59 60/109/58
f 60/109/58 51/110/59 61/111/60
f 51/110/59 52/112/61 61/111/60
f 61/111/60 52/112/61 62/113/62
f 52/112/61 43/94/43 62/113/62
f 62/113/62 43/94/43 53/97/45
f 53/23/45 54/24/46 63/25/63
f 54/24/46 55/26/48 63/25/63
f 55/26/48 56/27/50 63/25/63
f 56/27/50 57/28/52 63/25/63
f 57/28/52 58/29/54 63/25/63
f 58/29/54 59/30/56 63/25/63
f 59/30/56 60/31/58 63/25/63
f 60/31/58 61/32/60 63/25/63
f 61/32/60 62/33/62 63/25/63
f 62/33/62 53/23/45 63/25/63
f 64/114/64 65/115/65 74/117/66
f 74/117/66 65/115/65 75/116/67
f 65/115/65 66/118/68 75/116/67
f 75/116/67 66/118/68 76/119/69
f 66/118/68 67/120/70 76/119/69
f 76/119/69 67/120/70 77/121/71
f 67/120/70 68/122/72 77/121/71
f 77/121/71 68/122/72 78/123/73
f 68/122/72 69/124/74 78/123/73
f 78/123/73 69/124/74 79/125/75
f 69/124/74 70/126/76 79/125/75
f 79/125/75 70/126/76 80/127/77
f 70/126/76 71/128/78 80/127/77
f 80/127/77 71/128/78 81/129/79
f 71/128/78 72/130/80 81/129/79
f 81/129/79 72/130/80 82/131/81
f 72/130/80 73/132/82 82/131/81
f 82/131/81 73/132/82 83/133/83
f 73/132/82 64/114/64 83/133/83
f 83/133/83 64/114/64 74/117/66
f 74/34/66 75/35/67 84/36/84
f 75/35/67 76/37/69 84/36/84
f 76/37/69 77/38/71 84/36/84
f 77/38/71 78/39/73 84/36/84
f 78/39/73 79/40/75 84/36/84
f 79/40/75 80/41/77 84/36/84
f 80/41/77 81/42/79 84/36/84
f 81/42/79 82/43/81 84/36/84
f 82/43/81 83/44/83 84/36/84
f 83/44/83 74/34/66 84/36/84
f 85/134/85 86/135/86 95/137/87
f 95/137/87 86/135/86 96/136/88
f 86/135/86 87/138/89 96/136/88
f 96/136/88 87/138/89 97/139/90
f 87/138/89 88/140/91 97/139/90
f 97/139/90 88/140/91 98/141/92
f 88/140/91 89/142/93 98/141/92
f 98/141/92 89/142/93 99/143/94
f 89/142/93 90/144/95 99/143/94
f 99/143/94 90/144/95 100/145/96
f 90/144/95 91/146/97 100/145/96
f 100/145/96 91/146/97 101/147/98
f 91/146/97 92/148/99 101/147/98
f 101/147/98 92/148/99 102/149/100
f 92/148/99 93/150/101 102/149/100
f 102/149/100 93/150/101 103/151/102
f 93/150/101 94/152/103 103/151/102
f 103/151/102 94/152/103 104/153/104
f 94/152/103 85/134/85 104/153/104
f 104/153/104 85/134/85 95/137/87
f 95/45/87 96/46/88 105/47/105
f 96/46/88 97/48/90 105/47/105
f 97/48/90 98/49/92 105/47/105
f 98/49/92 99/50/94 105/47/105
f 99/50/94 100/51/96 105/47/105
f 100/51/96 101/52/98 105/47/105
f 101/52/98 102/53/100 105/47/105
f 102/53/100 103/54/102 105/47/105
f 103/54/102 104/55/104 105/47/105
f 104/55/104 95/45/87 105/47/105
f 106/160/106 107/161/107 116/163/108
f 116/163/108 107/161/107 117/162/109
f 107/161/107 108/164/110 117/162/109
f 117/162/109 108/164/110 118/165/111
f 108/164/110 109/166/112 118/165/111
f 118/165/111 109/166/112 119/167/113
f 109/166/112 110/168/114 119/167/113
f 119/167/113 110/168/114 120/169/115
f 110/168/114 111/170/116 120/169/115
f 120/169/115 111/170/116 121/171/117
f 111/170/116 112/172/118 121/171/117
f 121/171/117 112/172/118 122/173/119
f 112/172/118 113/179/120 122/173/119
f 122/173/119 113/179/120 123/174/121
f 113/179/120 114/180/122 123/174/121
f 123/174/121 114/180/122 124/181/123
f 114/175/122 115/177/124 124/176/123
f 124/176/123 115/177/124 125/178/125
f 115/177/124 106/160/106 125/178/125
f 125/178/125 106/160/106 116/163/108
f 116//108 117//109 126//126
f 117//109 118//111 126//126
f 118//111 119//113 126//126
f 119//113 120//115 126//126
f 120//115 121//117 126//126
f 121//117 122//119 126//126
f 122//119 123//121 126//126
f 123//121 124//123 126//126
f 124//123 125//125 126//126
f 125//125 116//108 126//126
v 0.465266 0.328487 6.500045
v 0.177716 0.537404 6.500045
v -0.177716 0.537404 6.500045
v -0.465266 0.328487 6.500045
v -0.575101 -0.009549 6.500045
v -0.465266 -0.347585 6.500045
v -0.177716 -0.556502 6.500045
v 0.177716 -0.556502 6.500045
v 0.465266 -0.347585 6.500045
v 0.575101 -0.009549 6.500045
v 0.465266 0.328487 7.828740
v 0.177716 0.537404 7.828740
v -0.177716 0.537404 7.828740
v -0.465266 0.328487 7.828740
v -0.575101 -0.009549 7.828740
v -0.465266 -0.347585 7.828740
v -0.177716 -0.556502 7.828740
v 0.177716 -0.556502 7.828740
v 0.465266 -0.347585 7.828740
v 0.575101 -0.009549 7.828740
v 0.000000 -0.009549 7.828740
vt 0.809673 0.039411
vt 0.857980 0.873590
vt 0.809663 0.873572
vt 0.423118 0.039451
vt 0.423101 0.873613
vt 0.471434 0.039469
vt 0.471424 0.873631
vt 0.519749 0.039476
vt 0.487864 0.873638
vt 0.568064 0.039469
vt 0.568074 0.873631
vt 0.616380 0.039451
vt 0.616397 0.873613
vt 0.664700 0.039429
vt 0.664717 0.873590
vt 0.713023 0.039411
vt 0.713034 0.873572
vt 0.761348 0.039404
vt 0.761348 0.873565
vt 0.761304 0.873601
vt 0.857997 0.039429
vt 0.906316 0.039451
vt 0.906300 0.873613
vt 0.954623 0.873631
vt 0.971063 0.873638
vn 0.809017 0.587785 -0.000000
vn 0.309017 0.951056 -0.000000
vn 0.764484 0.555430 0.327204
vn 0.292007 0.898704 0.327204
vn -0.309017 0.951056 -0.000000
vn -0.292007 0.898704 0.327204
vn -0.809017 0.587785 -0.000000
vn -0.764484 0.555430 0.327204
vn -1.000000 -0.000000 0.000000
vn -0.944954 -0.000000 0.327204
vn -0.809017 -0.587785 0.000000
vn -0.764483 -0.555430 0.327204
vn -0.309017 -0.951056 0.000000
vn -0.292007 -0.898704 0.327204
vn 0.309017 -0.951056 0.000000
vn 0.292007 -0.898704 0.327204
vn 0.809017 -0.587785 0.000000
vn 0.764484 -0.555430 0.327204
vn 1.000000 -0.000000 0.000000
vn 0.944954 -0.000000 0.327204
vn 0.000000 0.000000 1.000000
f 127/182/127 128/202/128 137/184/129
f 137/184/129 128/202/128 138/183/130
f 128/202/128 129/203/131 138/183/130
f 138/183/130 129/203/131 139/204/132
f 129/185/131 130/187/133 139/186/132
f 139/186/132 130/187/133 140/188/134
f 130/187/133 131/189/135 140/188/134
f 140/188/134 131/189/135 141/190/136
f 131/189/135 132/191/137 141/190/136
f 141/190/136 132/191/137 142/192/138
f 132/191/137 133/193/139 142/192/138
f 142/192/138 133/193/139 143/194/140
f 133/193/139 134/195/141 143/194/140
f 143/194/140 134/195/141 144/196/142
f 134/195/141 135/197/143 144/196/142
f 144/196/142 135/197/143 145/198/144
f 135/197/143 136/199/145 145/198/144
f 145/198/144 136/199/145 146/200/146
f 136/199/145 127/182/127 146/200/146
f 146/200/146 127/182/127 137/184/129
f 137/184/129 138/183/130 147/201/147
f 138/183/130 139/204/132 147/201/147
f 139/204/132 140/205/134 147/201/147
f 140/205/134 141/206/136 147/201/147
f 141/190/136 142/192/138 147/201/147
f 142/192/138 143/194/140 147/201/147
f 143/194/140 144/196/142 147/201/147
f 144/196/142 145/198/144 147/201/147
f 145/198/144 146/200/146 147/201/147
f 146/200/146 137/184/129 147/201/147
